<?xml version="1.0" encoding="utf-8"?>
<!-- Generator: Adobe Illustrator 22.1.0, SVG Export Plug-In . SVG Version: 6.00 Build 0)  -->
<svg version="1.1" id="Layer_1" xmlns="http://www.w3.org/2000/svg" xmlns:xlink="http://www.w3.org/1999/xlink" x="0px" y="0px"
	 viewBox="0 0 64 64" style="enable-background:new 0 0 64 64;" xml:space="preserve">
<style type="text/css">
	.st0{fill:#FFFFFF;stroke:#666666;stroke-width:4;stroke-miterlimit:10;}
	.st1{fill:none;stroke:#666666;stroke-width:4;stroke-linecap:round;stroke-miterlimit:10;}
	.st2{fill:#FFFFFF;stroke:#666666;stroke-width:2;stroke-miterlimit:10;}
	.st3{fill:none;stroke:#666666;stroke-width:2;stroke-miterlimit:10;}
</style>
<circle class="st0" cx="32" cy="32" r="24"/>
<polyline class="st1" points="32,16 32,32 44,44 "/>
<path class="st2" d="M30,32H18c-1.1,0-2-0.9-2-2V18c0-1.1,0.9-2,2-2h12c1.1,0,2,0.9,2,2v12C32,31.1,31.1,32,30,32z"/>
<path class="st2" d="M30,48H18c-1.1,0-2-0.9-2-2V34c0-1.1,0.9-2,2-2h12c1.1,0,2,0.9,2,2v12C32,47.1,31.1,48,30,48z"/>
<line class="st3" x1="24" y1="20" x2="24" y2="28"/>
<line class="st3" x1="20" y1="24" x2="28" y2="24"/>
<line class="st3" x1="20" y1="40" x2="28" y2="40"/>
</svg>
